<?xml version="1.0" encoding="UTF-8"?>
<!-- Generator: visioncortex VTracer 0.6.12 -->
<svg version="1.1" xmlns="http://www.w3.org/2000/svg" width="1254" height="1254">
<path d="M0 0 C38.51 -0.9 73.71 13.28 101.49 39.76 C112.09 50.12 119.44 62.25 126.55 75.16 C131.02 75.3 134.98 74.98 139.39 74.09 C174.16 67.32 208.74 73.64 238.42 92.72 C243.88 96.41 248.76 100.65 253.55 105.16 C254.02 105.6 254.02 105.6 256.43 107.8 C275.79 126.24 285.15 149.64 291.55 175.16 C291.88 175.15 291.88 175.15 293.56 175.11 C329.61 174.37 362.09 182.17 388.97 207.56 C402.47 220.72 411.56 235.79 418.55 253.16 C418.71 253.56 418.71 253.56 419.54 255.61 C420.34 257.78 420.97 259.93 421.55 262.16 C421.82 263.19 422.1 264.21 422.39 265.27 C426.36 282.62 426.07 301.85 422.5 319.25 C422.55 322.16 422.55 322.16 424.69 324.38 C427.32 326.02 429.94 327.65 432.61 329.22 C439.35 333.45 444.84 338.66 450.55 344.16 C450.91 344.48 450.91 344.48 452.73 346.12 C470.58 362.61 481.54 389.76 482.67 413.77 C483.04 427.19 482.79 440.1 479.55 453.16 C479.46 453.5 479.46 453.5 479.04 455.25 C474.04 475.43 464.56 492.31 451.1 508.12 C447.24 512.72 443.62 517.51 439.98 522.29 C432.44 532.14 424.79 541.89 417.01 551.55 C413.3 556.17 409.69 560.87 406.11 565.6 C401.27 571.98 396.28 578.23 391.21 584.43 C386.67 589.98 382.28 595.65 377.93 601.36 C370.27 611.36 362.5 621.28 354.6 631.09 C351.95 634.39 349.35 637.72 346.8 641.1 C333.33 658.29 314.17 668.8 292.59 671.92 C288.79 672.37 284.99 672.59 281.17 672.79 C280.4 672.83 279.62 672.87 278.82 672.91 C275.85 673.05 272.91 673.17 269.93 673.09 C263.79 673.12 259.59 676.56 254.74 679.95 C239.93 690.27 223.46 697.09 206.55 703.16 C205.73 703.45 204.92 703.75 204.08 704.05 C194.54 707.43 184.9 709.88 174.98 711.91 C174.5 712.01 174.5 712.01 172.05 712.51 C156.35 715.55 140.7 716.57 124.73 716.54 C123.85 716.53 122.96 716.53 122.05 716.53 C74.31 716.4 24.75 703.02 -15.55 676.89 C-16.41 676.34 -17.26 675.78 -18.15 675.21 C-19.82 674.12 -21.48 673.01 -23.12 671.88 C-23.88 671.38 -24.63 670.88 -25.41 670.37 C-25.74 670.15 -25.74 670.15 -27.41 669.01 C-30.14 667.88 -31.67 668.29 -34.45 669.16 C-37.05 671.06 -37.05 671.06 -39.95 673.54 C-60.09 689.78 -86.73 698.93 -112.45 700.16 C-112.92 700.19 -112.92 700.19 -115.28 700.32 C-140.2 701.06 -167.56 694.06 -186.45 677.16 C-186.9 676.76 -186.9 676.76 -189.16 674.75 C-190.97 673.1 -192.78 671.45 -194.58 669.79 C-196.8 667.76 -199.03 665.78 -201.3 663.81 C-205.4 660.23 -209.37 656.53 -213.33 652.79 C-219.87 646.62 -226.44 640.51 -233.23 634.62 C-238.77 629.81 -244.12 624.81 -249.45 619.77 C-253.39 616.05 -257.4 612.44 -261.49 608.88 C-264.67 606.09 -267.75 603.19 -270.83 600.29 C-275.81 595.61 -280.83 590.99 -285.93 586.43 C-288.96 583.7 -291.96 580.93 -294.95 578.16 C-298.76 574.63 -302.59 571.13 -306.45 567.66 C-310.89 563.68 -315.27 559.65 -319.64 555.6 C-322.87 552.61 -326.11 549.65 -329.39 546.72 C-333.5 543.04 -337.54 539.3 -341.58 535.54 C-347.07 530.42 -352.58 525.33 -358.39 520.57 C-367.29 513.16 -374.09 503.77 -380.45 494.16 C-380.7 493.8 -380.7 493.8 -381.94 491.98 C-395.76 470.5 -401.9 443.99 -401.83 418.72 C-401.83 418.02 -401.83 417.33 -401.83 416.61 C-401.79 404.44 -400.63 392.93 -397.45 381.16 C-397.29 380.53 -397.29 380.53 -396.46 377.36 C-389.38 353.72 -376.59 332.73 -359.45 315.16 C-358.69 314.32 -357.92 313.48 -357.14 312.62 C-349.85 304.85 -341.33 298.97 -332.45 293.16 C-331.86 292.77 -331.27 292.38 -330.66 291.98 C-309.6 278.41 -283.99 271.91 -259.23 270.41 C-256.85 270.2 -254.74 269.82 -252.45 269.16 C-252.4 268.82 -252.4 268.82 -252.11 267.08 C-248.01 248.81 -236.54 231.65 -226.45 216.16 C-226.01 215.47 -225.56 214.79 -225.1 214.08 C-218.41 203.85 -211.46 193.79 -204.45 183.77 C-200.18 177.66 -195.96 171.52 -191.77 165.35 C-182.19 151.3 -172.09 137.62 -161.99 123.95 C-159.63 120.76 -157.29 117.57 -154.95 114.37 C-146.98 103.48 -138.79 92.77 -130.45 82.16 C-129.44 80.86 -128.42 79.57 -127.41 78.27 C-119.21 67.8 -110.91 57.42 -102.45 47.16 C-101.85 46.42 -101.24 45.68 -100.62 44.91 C-99.28 43.29 -97.87 41.72 -96.45 40.16 C-95.79 40.16 -95.13 40.16 -94.45 40.16 C-94.45 39.5 -94.45 38.84 -94.45 38.16 C-69.21 13.81 -34.51 1.6 0 0 Z " fill="#161616" transform="translate(616.453125,214.83984375)"/>
<path d="M0 0 C1.93 1.85 3.81 3.73 5.69 5.62 C6.49 6.39 7.29 7.16 8.12 7.95 C21.11 21.17 27.91 39.19 28.19 57.56 C28.04 70.53 25.47 83.04 17.69 93.62 C16.87 94.75 16.06 95.87 15.24 97 C13.38 99.56 11.5 102.1 9.61 104.64 C6.73 108.53 3.98 112.5 1.25 116.5 C-2.5 121.99 -6.28 127.45 -10.12 132.88 C-21.6 149.09 -32.94 165.39 -44.28 181.7 C-46.96 185.55 -49.64 189.41 -52.32 193.26 C-53.65 195.17 -54.97 197.08 -56.3 198.98 C-59.7 203.86 -63.09 208.74 -66.49 213.62 C-72.71 222.56 -78.93 231.51 -85.1 240.5 C-89.1 246.33 -93.14 252.13 -97.19 257.94 C-102.14 265.04 -107.06 272.16 -111.94 279.31 C-116.97 286.7 -122.08 294.03 -127.22 301.35 C-130.84 306.51 -134.43 311.68 -138 316.88 C-138.22 317.19 -138.22 317.19 -139.34 318.81 C-141.63 322.15 -143.9 325.5 -146.12 328.89 C-151.12 336.45 -155.85 343.26 -163.31 348.62 C-164.06 349.16 -164.8 349.7 -165.57 350.25 C-182.19 361.18 -204.74 363.61 -224.01 359.87 C-227.53 358.95 -230.9 357.89 -234.31 356.62 C-235.2 356.34 -236.09 356.05 -237.01 355.75 C-244.17 353.23 -250.16 349 -256.31 344.62 C-257.15 344.04 -257.99 343.45 -258.85 342.84 C-262.92 339.91 -262.92 339.91 -264.31 338.62 C-264.31 337.96 -264.31 337.31 -264.31 336.62 C-264.97 336.62 -265.63 336.62 -266.31 336.62 C-282.18 319.52 -290.78 298.24 -290.59 274.84 C-290.39 270.39 -289.62 266.15 -288.62 261.81 C-288.55 261.48 -288.55 261.48 -288.18 259.79 C-284.99 247.08 -276.79 236.63 -269.5 226 C-267.8 223.5 -266.1 221.01 -264.4 218.51 C-263.27 216.85 -262.15 215.2 -261.02 213.55 C-256.53 206.96 -252.1 200.33 -247.69 193.69 C-235.81 175.83 -223.67 158.16 -211.31 140.62 C-210.79 139.88 -210.27 139.14 -209.73 138.38 C-206.75 134.15 -203.77 129.93 -200.78 125.7 C-198.79 122.89 -196.8 120.07 -194.82 117.26 C-193.81 115.84 -192.81 114.42 -191.81 113 C-189.32 109.47 -186.83 105.94 -184.35 102.41 C-179.26 95.18 -174.13 87.97 -168.94 80.81 C-163.73 73.63 -158.63 66.38 -153.55 59.1 C-149.06 52.66 -144.47 46.28 -139.86 39.92 C-136.79 35.69 -133.77 31.43 -130.81 27.12 C-127.11 21.74 -123.32 16.42 -119.5 11.12 C-118.95 10.36 -118.4 9.59 -117.83 8.8 C-116.33 6.74 -114.83 4.68 -113.31 2.62 C-112.65 1.72 -111.99 0.81 -111.3 -0.12 C-99.06 -13.96 -79.31 -19.75 -61.57 -21.14 C-39.36 -22.4 -16.51 -15.09 0 0 Z " fill="#E21C1C" transform="translate(840.3125,346.375)"/>
<path d="M0 0 C1.85 1.85 1.56 4.54 1.9 7.03 C5.15 30.52 13.81 52.06 28.66 70.62 C30.62 73.09 31.99 74.98 33 78 C33.66 78 34.32 78 35 78 C35.57 78.72 36.15 79.44 36.74 80.18 C48.42 94.76 68.49 104.58 86 110 C86.64 110.2 87.27 110.4 87.93 110.6 C96.02 113.03 103.84 114.24 112.25 114.88 C134.04 116.66 149.89 134.09 163.61 149.85 C166.37 153.18 168.98 156.63 171.57 160.1 C173.77 163.02 176.03 165.9 178.29 168.78 C183.56 175.51 188.75 182.29 193.86 189.14 C195.79 191.73 197.75 194.29 199.72 196.84 C200.57 197.94 201.42 199.05 202.26 200.15 C204.28 202.78 206.31 205.38 208.39 207.96 C222.74 226.15 227.86 247.07 226 270 C222.8 294.49 210.41 316.85 190.86 331.95 C180.76 339.2 170.76 344.17 159 348 C158.61 348.13 158.61 348.13 156.62 348.78 C138.68 353.6 117.53 351.23 101 343 C94.85 339.41 89.83 335.08 84.91 329.96 C82.48 327.47 79.87 325.23 77.24 322.95 C69.74 316.41 62.51 309.55 55.25 302.75 C50.92 298.7 46.58 294.7 42.09 290.84 C38.59 287.76 35.19 284.57 31.77 281.4 C28.93 278.76 26.07 276.16 23.12 273.62 C18.46 269.59 13.99 265.34 9.49 261.12 C5.75 257.61 1.97 254.17 -1.92 250.83 C-5.37 247.8 -8.72 244.66 -12.09 241.54 C-15.33 238.54 -18.58 235.57 -21.88 232.62 C-26.18 228.77 -30.41 224.83 -34.62 220.88 C-38.99 216.78 -43.38 212.74 -47.92 208.83 C-50.79 206.31 -53.58 203.72 -56.38 201.12 C-60.29 197.5 -64.22 193.88 -68.19 190.31 C-68.59 189.95 -68.59 189.95 -70.6 188.14 C-72.24 186.68 -73.9 185.21 -75.56 183.76 C-96 165.74 -108.19 142.12 -110.16 114.79 C-111.67 85.96 -101.67 57.86 -82.48 36.29 C-61.59 13.41 -31.44 -1.31 0 0 Z " fill="#E21C1C" transform="translate(363,525)"/>
<path d="M0 0 C1.05 0 2.1 0.01 3.17 0.01 C11.53 0.13 19.17 1.05 27.25 3.31 C28.27 3.59 29.28 3.87 30.33 4.16 C51.09 10.47 70.04 23.51 81.25 42.31 C87.61 54.35 92.11 67.04 88.1 80.66 C86.32 85.68 83.53 89.6 80.31 93.81 C79.14 95.4 77.96 96.98 76.79 98.56 C76.19 99.36 75.6 100.15 74.99 100.96 C72.34 104.54 69.8 108.17 67.25 111.81 C63.13 117.68 58.96 123.51 54.75 129.31 C49.01 137.23 43.36 145.21 37.73 153.2 C34.74 157.45 31.74 161.7 28.75 165.94 C26.26 169.47 23.77 173 21.29 176.53 C16.19 183.76 11.07 190.96 5.88 198.12 C0.03 206.19 -5.69 214.33 -11.38 222.5 C-13.4 225.39 -15.44 228.29 -17.49 231.16 C-27.08 244.59 -36.25 258.3 -45.47 271.98 C-49.9 278.54 -54.35 285.08 -58.81 291.62 C-63.41 298.37 -67.98 305.14 -72.5 311.95 C-85.07 330.91 -95.36 345.48 -118.5 351.25 C-141 355.3 -163.66 350.84 -182.94 338.56 C-204.07 323.69 -216.32 303.59 -221.33 278.39 C-225.51 247.66 -211.95 223.24 -195.75 198.31 C-195.29 197.61 -194.84 196.91 -194.37 196.19 C-191.55 191.86 -188.66 187.58 -185.75 183.31 C-185.33 182.7 -184.91 182.08 -184.48 181.45 C-173.02 164.64 -161.32 148 -149.36 131.54 C-147.73 129.28 -146.1 127.02 -144.47 124.75 C-138.84 116.91 -133.15 109.12 -127.34 101.42 C-123.45 96.27 -119.63 91.08 -115.81 85.88 C-109.24 76.93 -102.54 68.1 -95.75 59.31 C-95.46 58.93 -95.46 58.93 -93.97 57 C-78.99 37.6 -78.99 37.6 -72.75 30.31 C-72.23 29.7 -71.71 29.08 -71.18 28.45 C-53.79 9.44 -25.15 -0.14 0 0 Z " fill="#E21C1C" transform="translate(619.75,253.6875)"/>
<path d="M0 0 C0.43 0.3 0.43 0.3 2.6 1.84 C19.05 14.28 29.24 30.78 33.61 50.79 C37.27 80.88 27.18 101.18 9.02 124.38 C6 128.29 3.12 132.29 0.25 136.31 C-4.23 142.56 -8.78 148.75 -13.41 154.89 C-17.31 160.07 -21.16 165.28 -25 170.5 C-29.79 177.01 -34.61 183.5 -39.47 189.95 C-43.27 195 -47.01 200.09 -50.75 205.19 C-56.42 212.92 -62.21 220.55 -68.04 228.16 C-73.01 234.66 -77.88 241.23 -82.71 247.83 C-87.09 253.8 -91.56 259.69 -96.06 265.56 C-102.1 273.45 -107.98 281.44 -113.78 289.52 C-121.89 300.83 -130.15 312.03 -138.7 323.01 C-140.26 325.04 -141.8 327.1 -143.3 329.18 C-153.32 343.04 -164.46 351.08 -181.49 354.53 C-201.81 357.24 -221.25 352.8 -237.83 340.51 C-255 327.21 -263.8 310.12 -267 289 C-267.31 285.93 -267.29 283.07 -267 280 C-266.91 279.02 -266.81 278.04 -266.72 277.02 C-264.74 261.11 -257.84 250.11 -248.69 237.36 C-243.23 229.73 -237.91 222.01 -232.56 214.31 C-231.15 212.29 -229.74 210.26 -228.34 208.23 C-227.62 207.21 -226.9 206.18 -226.17 205.12 C-224.04 202.06 -221.92 199.01 -219.79 195.95 C-208.17 179.27 -208.17 179.27 -202.5 171 C-196.08 161.63 -189.58 152.32 -183.09 143 C-181.03 140.04 -178.97 137.08 -176.91 134.12 C-168.87 122.55 -160.81 111 -152.73 99.46 C-150.96 96.95 -149.2 94.43 -147.44 91.91 C-141.33 83.17 -135.2 74.44 -129.05 65.73 C-126.52 62.16 -124 58.58 -121.5 55 C-113.64 43.76 -105.74 32.55 -97.65 21.48 C-95.2 18.1 -92.79 14.73 -90.53 11.22 C-82.55 -1.13 -72.05 -7.59 -57.78 -11.11 C-38.14 -15.24 -16.4 -11.67 0 0 Z " fill="#E21C1C" transform="translate(968,442)"/>
<path d="M0 0 C15.91 5.35 27.4 17.35 35 32 C44.34 52.09 44.62 74.34 37.25 95.11 C33.76 104.4 29.29 112.28 23 120 C21.97 121.27 20.95 122.54 19.92 123.81 C18.23 125.89 16.54 127.96 14.85 130.03 C10.9 134.85 7.13 139.76 3.42 144.77 C0.45 148.77 -2.62 152.69 -5.69 156.62 C-6.28 157.39 -6.88 158.15 -7.49 158.93 C-8.71 160.5 -9.93 162.07 -11.15 163.63 C-14.19 167.52 -17.22 171.42 -20.25 175.31 C-20.54 175.69 -20.54 175.69 -22.02 177.59 C-25.43 181.97 -28.81 186.35 -32.19 190.75 C-35.52 195.08 -38.87 199.39 -42.25 203.69 C-50.56 214.24 -58.83 224.81 -66.95 235.51 C-69.62 239.01 -72.3 242.51 -75 246 C-75.56 246.72 -76.11 247.44 -76.69 248.18 C-87.67 262.33 -98.09 272.67 -116.59 275.72 C-132.64 277.59 -147.44 272.86 -160.31 263.25 C-169.32 255.63 -175.74 244.65 -178 233 C-178.14 231.27 -178.22 229.54 -178.25 227.81 C-178.28 226.93 -178.3 226.05 -178.33 225.14 C-177.42 216.4 -173.55 210.41 -168.19 203.62 C-166.83 201.86 -165.47 200.1 -164.12 198.34 C-163.43 197.45 -162.74 196.56 -162.03 195.65 C-158.9 191.56 -155.85 187.41 -152.81 183.25 C-148.57 177.48 -144.31 171.72 -140 166 C-135.68 160.25 -131.39 154.48 -127.12 148.69 C-126.54 147.89 -125.95 147.09 -125.35 146.27 C-122.41 142.29 -119.49 138.3 -116.56 134.31 C-109.65 124.89 -102.64 115.56 -95.55 106.28 C-91.62 101.15 -87.76 95.98 -83.98 90.73 C-78.66 83.4 -73.17 76.21 -67.72 68.98 C-63.85 63.83 -60.01 58.66 -56.2 53.46 C-49.84 44.79 -43.39 36.2 -36.84 27.66 C-33.7 23.56 -30.57 19.44 -27.53 15.26 C-27 14.53 -26.46 13.79 -25.91 13.04 C-24.92 11.69 -23.95 10.33 -22.98 8.97 C-16.76 0.48 -10.35 -1.63 0 0 Z " fill="#E21C1C" transform="translate(1018,573)"/>
<path d="M0 0 C0.11 0.55 0.23 1.1 0.35 1.67 C3 14.16 6.24 25.59 12 37 C12.52 38.04 13.04 39.09 13.58 40.16 C26.27 63.59 48.77 80.65 74.1 88.29 C93.33 93.71 114.24 94.17 133.52 88.78 C138.98 87.56 138.98 87.56 142 89 C143.51 91.48 144.67 93.74 145.81 96.38 C151.74 109.01 160.2 121.13 172 129 C172 129.66 172 130.32 172 131 C144.41 145.11 114.43 155.02 83.14 155.2 C82.74 155.21 82.74 155.21 80.67 155.22 C46.53 155.45 46.53 155.45 30 152 C29.51 151.9 29.51 151.9 27.03 151.4 C-2.69 145.21 -39.94 134.06 -62 112 C-61.71 108.27 -60.26 105.19 -58.68 101.84 C-44.22 71.18 -43.85 36.73 -55 5 C-51.17 3.95 -47.8 4.08 -43.87 4.42 C-31.21 5.51 -18.31 4.52 -6.08 0.89 C-3 0 -3 0 0 0 Z " fill="#E21C1C" transform="translate(670,736)"/>
</svg>
